:SAMPLES-PER-SECOND 30
:FULLY-SPECIFIED
:DEGREES
505
root  -2.65305 40.965 1.36717 176.531 -78.1142 -175.732
RightUpLeg  1.74514 0.732212 -0.0118948
RightLeg  -1.97896 -6.44016 -0.468813
RightFoot  0.601498 -0.251148 2.43772
RightToes  -3.10678e-008 1.75238e-005 3.56266e-009
Spine  -3.90133 1.94487 0.24068
Spine1  7.15813 2.25336 -1.31107
HEad  -13.9509 -5.75933 9.83955
LeftShoulder1  2.98102 -6.29786 -24.2112
LeftArm  -57.8314 53.6324 -67.219
LeftForeArm  125.092 -6.07076 8.08288
LeftHand  -0.825655 -3.8257 10.6946
RightShoulder  1.21557 1.89811 15.8248
RightArm  1.2318 67.364 65.6991
RightForeArm  38.7256 34.9111 5.5703
RightHand  -0.115189 4.89208 -1.60056
LeftUpLeg  4.55946 1.0677 1.48709
LeftLeg  -3.48524 26.2747 -1.51106
LeftFoot  -0.868579 0.22825 -2.38038
LeftToes  4.76857e-008 1.46588e-008 1.31384e-009
506
root  -2.67686 40.9716 1.35332 175.931 -78.0039 -175.169
RightUpLeg  1.84693 0.835753 0.132641
RightLeg  -2.02908 -6.35954 -0.492229
RightFoot  0.726821 -0.269559 2.59558
RightToes  -3.10678e-008 1.75238e-005 3.56266e-009
Spine  -3.95804 2.2382 0.421357
Spine1  7.14511 2.59494 -1.50202
HEad  -12.9676 -7.9619 9.05796
LeftShoulder1  2.90847 -6.34885 -23.271
LeftArm  -61.9624 56.0916 -69.8639
LeftForeArm  133.008 -6.40544 9.87395
LeftHand  -0.836574 -5.53151 9.16924
RightShoulder  1.1134 1.47996 15.6492
RightArm  0.158549 68.4012 65.001
RightForeArm  39.0491 35.4625 5.69303
RightHand  0.0201312 5.15761 -0.0816512
LeftUpLeg  4.55264 1.18735 1.64614
LeftLeg  -3.2621 26.334 -1.44127
LeftFoot  -0.960824 0.228104 -2.3936
LeftToes  4.76857e-008 1.46588e-008 1.31384e-009
507
root  -2.66139 40.9767 1.35305 175.606 -78.408 -174.975
RightUpLeg  2.02146 0.75706 0.0926776
RightLeg  -2.04654 -6.58023 -0.433005
RightFoot  0.757757 -0.295261 2.83364
RightToes  -3.10678e-008 1.75238e-005 3.56266e-009
Spine  -3.90571 2.08306 0.754808
Spine1  7.22179 2.56213 -2.11917
HEad  -11.7872 -8.89905 7.99641
LeftShoulder1  2.99393 -6.62383 -23.3152
LeftArm  -65.0366 55.7483 -69.8203
LeftForeArm  136.806 -6.531 12.6544
LeftHand  -0.688493 -5.48787 7.65437
RightShoulder  1.17764 1.70113 15.9595
RightArm  -0.277408 67.7546 64.0312
RightForeArm  39.4155 35.7526 5.74689
RightHand  0.0634328 4.79224 0.422606
LeftUpLeg  4.60197 1.19638 1.67292
LeftLeg  -3.22023 26.0125 -1.40115
LeftFoot  -0.899467 0.223942 -2.3439
LeftToes  4.76857e-008 1.46588e-008 1.31384e-009
508
root  -2.61864 40.9748 1.35281 175.758 -79.0617 -175.12
RightUpLeg  1.90556 0.667913 0.00374785
RightLeg  -1.82516 -7.10106 -0.424072
RightFoot  0.649559 -0.292315 2.8237
RightToes  -3.10678e-008 1.75238e-005 3.56266e-009
Spine  -3.89773 1.69305 0.440277
Spine1  7.08316 2.11664 -1.85946
HEad  -11.2321 -10.3686 6.285
LeftShoulder1  3.12555 -6.88656 -23.8593
LeftArm  -64.9374 53.356 -67.749
LeftForeArm  138.758 -6.62251 14.4592
LeftHand  -0.632263 -5.37886 7.11684
RightShoulder  1.30865 2.14076 16.549
RightArm  1.34625 65.5803 64.2765
RightForeArm  39.2342 35.9787 5.81511
RightHand  0.0388174 4.64487 0.157733
LeftUpLeg  4.46518 1.09051 1.59398
LeftLeg  -3.27208 25.5214 -1.36828
LeftFoot  -0.763481 0.214486 -2.21991
LeftToes  4.76857e-008 1.46588e-008 1.31384e-009
509
root  -2.56191 40.9748 1.34826 175.971 -80.0283 -175.32
RightUpLeg  1.83399 0.600487 -0.0698457
RightLeg  -1.68113 -7.9973 -0.421882
RightFoot  0.530489 -0.270192 2.63241
RightToes  -3.10678e-008 1.75238e-005 3.56266e-009
Spine  -3.7962 1.24469 -0.243051
Spine1  6.69076 1.43773 -0.808355
HEad  -10.2255 -11.4988 2.13901
LeftShoulder1  3.2825 -7.21824 -24.4261
LeftArm  -60.471 48.7403 -63.988
LeftForeArm  139.267 -5.50527 14.2545
LeftHand  -0.695592 -5.2291 7.97501
RightShoulder  1.58628 3.10193 17.4716
RightArm  2.71261 61.5529 63.1172
RightForeArm  39.2691 36.236 5.87985
RightHand  0.0554294 4.93242 0.319429
LeftUpLeg  4.23778 0.958875 1.52002
LeftLeg  -3.23558 24.7052 -1.28229
LeftFoot  -0.654578 0.223459 -2.38059
LeftToes  4.76857e-008 1.46588e-008 1.31384e-009
